<?xml version="1.0" standalone="no"?>
<!DOCTYPE svg PUBLIC "-//W3C//DTD SVG 20010904//EN"
 "http://www.w3.org/TR/2001/REC-SVG-20010904/DTD/svg10.dtd">
<svg version="1.0" xmlns="http://www.w3.org/2000/svg"
 width="980.000000pt" height="980.000000pt" viewBox="0 0 980.000000 980.000000"
 preserveAspectRatio="xMidYMid meet">

<g transform="translate(0.000000,980.000000) scale(0.100000,-0.100000)"
fill="#000000" stroke="none">
<path d="M3990 8203 c-185 -31 -340 -179 -379 -361 -8 -37 -11 -363 -11 -1082
l0 -1030 55 0 55 0 0 1045 c0 1039 0 1045 21 1102 29 79 122 171 202 202 56
20 73 21 468 21 l410 0 57 -27 c38 -18 82 -53 132 -105 81 -83 125 -108 193
-108 61 0 111 30 184 110 47 50 81 78 128 100 l63 30 411 0 c390 0 413 -1 466
-21 77 -29 154 -102 191 -181 l29 -63 0 -2935 0 -2935 -29 -62 c-33 -72 -97
-137 -171 -173 l-50 -25 -1225 0 -1225 0 -55 26 c-69 33 -133 97 -168 169
l-27 55 -3 1168 -2 1167 -55 0 -55 0 0 -1140 c0 -791 3 -1155 11 -1192 36
-174 182 -320 357 -357 37 -8 400 -11 1220 -11 994 0 1176 2 1230 15 162 38
285 150 332 303 20 63 20 104 20 2996 0 2909 0 2933 -20 2991 -54 156 -190
275 -349 305 -52 10 -2354 13 -2411 3z"/>
<path d="M4100 5800 c-11 -11 -20 -29 -20 -40 0 -11 9 -29 20 -40 18 -18 33
-20 189 -20 l169 0 16 -62 c50 -196 307 -1172 322 -1224 10 -37 22 -54 40 -63
34 -15 1120 -16 1161 0 47 18 57 55 23 89 -20 20 -33 20 -570 20 -302 0 -550
2 -550 4 0 3 -11 45 -24 95 l-25 91 598 0 c462 0 601 3 613 13 11 7 43 111 87
282 39 149 87 329 106 400 37 139 42 184 23 203 -9 9 -209 12 -839 12 l-826 0
-32 118 c-18 70 -38 122 -48 130 -12 9 -72 12 -215 12 -185 0 -199 -1 -218
-20z m862 -470 c9 -63 17 -128 17 -143 l1 -28 -132 3 -132 3 -38 140 c-20 77
-37 141 -38 143 0 1 69 1 152 0 l153 -3 17 -115z m382 105 c3 -8 4 -72 3 -142
l-2 -128 -122 -3 c-68 -1 -123 0 -123 2 0 7 -29 211 -36 254 l-5 32 139 0
c114 0 141 -3 146 -15z m395 -12 c0 -16 -8 -80 -17 -143 l-17 -115 -123 -3
-122 -3 0 146 0 145 140 0 140 0 -1 -27z m421 20 c0 -3 -16 -68 -36 -145 l-37
-138 -134 0 -134 0 5 33 c3 17 13 83 22 145 l16 112 149 0 c82 0 149 -3 149
-7z m-1155 -425 c9 -54 35 -237 35 -248 0 -14 -207 -13 -216 1 -6 11 -74 257
-74 272 0 4 56 7 125 7 l124 0 6 -32z m341 8 c3 -13 4 -77 2 -143 l-3 -118
-92 -3 c-89 -3 -93 -2 -97 20 -7 32 -36 236 -36 253 0 12 20 15 110 15 107 0
110 0 116 -24z m335 19 c6 -5 -26 -248 -35 -271 -4 -11 -28 -14 -96 -14 l-90
0 0 145 0 145 108 0 c60 0 111 -2 113 -5z m369 -12 c0 -10 -15 -74 -34 -143
l-33 -125 -98 -3 c-54 -1 -104 -1 -110 2 -9 3 -7 37 7 133 10 70 21 134 23
141 3 9 37 12 125 12 108 0 120 -2 120 -17z"/>
<path d="M3857 5430 c-513 -5 -497 -4 -497 -55 0 -26 10 -39 37 -54 28 -14
919 -16 957 -1 28 10 45 54 29 78 -22 36 -40 37 -526 32z"/>
<path d="M3052 5134 c-26 -18 -30 -65 -6 -88 14 -14 90 -16 693 -16 644 0 679
1 694 18 24 26 21 68 -5 86 -20 14 -102 16 -688 16 -586 0 -668 -2 -688 -16z"/>
<path d="M3506 4838 c-9 -12 -16 -29 -16 -38 0 -9 7 -26 16 -38 l15 -22 497 0
c273 0 502 4 508 8 6 4 16 17 23 30 12 23 1 58 -23 74 -6 4 -235 8 -508 8
l-497 0 -15 -22z"/>
<path d="M4932 4210 c-68 -41 -78 -133 -21 -189 76 -77 209 -26 209 80 0 105
-100 163 -188 109z"/>
<path d="M5732 4205 c-84 -70 -53 -201 52 -220 104 -20 183 97 127 188 -38 62
-125 78 -179 32z"/>
</g>
</svg>
