<?xml version="1.0" standalone="no"?>
<!DOCTYPE svg PUBLIC "-//W3C//DTD SVG 20010904//EN"
 "http://www.w3.org/TR/2001/REC-SVG-20010904/DTD/svg10.dtd">
<svg version="1.0" xmlns="http://www.w3.org/2000/svg"
 width="225.000000pt" height="225.000000pt" viewBox="0 0 225.000000 225.000000"
 preserveAspectRatio="xMidYMid meet">

<g transform="translate(0.000000,225.000000) scale(0.100000,-0.100000)"
fill="#000000" stroke="none">
<path d="M680 2019 c0 -8 9 -68 20 -134 11 -66 20 -123 20 -127 0 -10 -63 -29
-70 -21 -6 7 -16 32 -51 122 -5 13 -12 22 -14 19 -3 -3 8 -38 25 -78 16 -40
30 -74 30 -75 0 -1 -14 -8 -31 -15 -35 -15 -26 -23 -118 108 -40 56 -75 102
-78 102 -6 0 2 -13 77 -120 37 -52 69 -100 73 -106 3 -6 -7 -21 -24 -33 l-29
-22 -59 51 c-31 27 -62 50 -67 50 -5 0 -2 -6 7 -13 8 -7 37 -31 63 -54 39 -35
46 -45 37 -60 -28 -48 -24 -48 -117 2 -49 26 -104 56 -121 67 -18 11 -33 16
-33 11 0 -4 54 -37 119 -72 119 -63 119 -63 108 -90 -6 -14 -12 -27 -13 -29
-1 -2 -34 6 -74 18 -40 12 -74 20 -76 17 -2 -2 29 -14 71 -26 76 -23 80 -27
68 -70 l-6 -24 -141 5 c-88 4 -116 3 -76 -2 36 -4 94 -8 130 -9 82 -2 92 -8
88 -57 l-3 -38 -80 -15 c-44 -9 -73 -17 -65 -19 9 -1 47 4 85 12 38 8 70 14
71 13 0 -1 7 -20 15 -42 14 -39 16 -40 72 -45 l57 -5 0 47 c0 78 1 78 312 78
l267 0 3 33 3 32 85 6 85 5 -87 2 c-63 1 -88 6 -88 15 0 6 -3 21 -6 33 -5 19
6 24 123 59 70 20 132 41 137 46 6 5 -3 5 -20 0 -207 -61 -247 -72 -249 -69
-2 2 -6 15 -10 30 -6 25 -2 29 67 67 90 50 82 53 -14 5 -56 -28 -73 -33 -80
-22 -30 45 -31 43 70 133 53 48 99 92 101 99 2 6 -34 -23 -80 -63 -46 -41 -94
-84 -106 -94 -22 -19 -22 -19 -52 4 -16 13 -30 28 -30 32 -1 4 17 35 40 68 22
33 39 63 36 65 -2 3 -23 -25 -47 -61 -23 -36 -44 -65 -47 -65 -4 0 -65 30 -71
35 -2 2 48 151 84 250 5 14 4 17 -3 10 -6 -5 -27 -59 -47 -120 -46 -138 -45
-137 -85 -129 l-34 7 6 86 c4 62 3 73 -3 41 -5 -25 -9 -62 -9 -82 -1 -32 -4
-38 -23 -38 -13 0 -32 -3 -44 -6 -20 -5 -22 2 -43 132 -20 124 -31 174 -31
133z"/>
<path d="M610 1090 l0 -210 88 -2 c48 -1 138 0 201 1 64 2 111 0 108 -5 -3 -5
17 -9 43 -9 26 0 46 4 43 8 -6 9 742 7 814 -3 29 -3 50 -3 47 2 -3 4 29 8 71
8 l75 0 -2 208 -3 207 -742 3 -743 2 0 -210z m120 -5 c0 -103 -4 -165 -10
-165 -6 0 -10 62 -10 165 0 103 4 165 10 165 6 0 10 -62 10 -165z m60 0 c0
-103 -4 -165 -10 -165 -6 0 -10 59 -10 158 0 139 3 172 17 172 2 0 3 -74 3
-165z m70 0 c0 -92 -4 -156 -10 -160 -7 -4 -10 52 -10 160 0 108 3 164 10 160
6 -4 10 -68 10 -160z m60 0 c0 -103 -4 -165 -10 -165 -6 0 -10 62 -10 165 0
103 4 165 10 165 6 0 10 -62 10 -165z m60 -1 c0 -107 -3 -163 -10 -159 -6 4
-10 68 -10 159 0 134 3 166 17 166 2 0 3 -75 3 -166z m70 1 c0 -103 -4 -165
-10 -165 -6 0 -10 62 -10 165 0 103 4 165 10 165 6 0 10 -62 10 -165z m60 -1
c0 -107 -3 -163 -10 -159 -6 4 -10 68 -10 159 0 134 3 166 17 166 2 0 3 -75 3
-166z m70 1 c0 -92 -4 -156 -10 -160 -7 -4 -10 52 -10 160 0 108 3 164 10 160
6 -4 10 -68 10 -160z m60 0 c0 -103 -4 -165 -10 -165 -6 0 -10 62 -10 165 0
103 4 165 10 165 6 0 10 -62 10 -165z m57 -88 c-1 -45 -3 -5 -3 88 0 94 2 130
3 82 2 -48 2 -125 0 -170z m73 88 c0 -103 -4 -165 -10 -165 -6 0 -10 62 -10
165 0 103 4 165 10 165 6 0 10 -62 10 -165z m60 -1 c0 -107 -3 -163 -10 -159
-6 4 -10 68 -10 159 0 134 3 166 17 166 2 0 3 -75 3 -166z m70 1 c0 -103 -4
-165 -10 -165 -6 0 -10 62 -10 165 0 103 4 165 10 165 6 0 10 -62 10 -165z
m60 0 c0 -103 -4 -165 -10 -165 -6 0 -10 62 -10 165 0 103 4 165 10 165 6 0
10 -62 10 -165z m70 0 c0 -92 -4 -156 -10 -160 -7 -4 -10 52 -10 160 0 108 3
164 10 160 6 -4 10 -68 10 -160z m60 0 c0 -103 -4 -165 -10 -165 -6 0 -10 62
-10 165 0 103 4 165 10 165 6 0 10 -62 10 -165z m60 -1 c0 -107 -3 -163 -10
-159 -6 4 -10 68 -10 159 0 134 3 166 17 166 2 0 3 -75 3 -166z m70 -5 c0 -99
-4 -159 -10 -159 -6 0 -10 62 -10 166 0 107 3 163 10 159 6 -4 10 -70 10 -166z
m60 6 c0 -103 -4 -165 -10 -165 -6 0 -10 59 -10 158 0 139 3 172 17 172 2 0 3
-74 3 -165z m70 0 c0 -92 -4 -156 -10 -160 -7 -4 -10 52 -10 160 0 108 3 164
10 160 6 -4 10 -68 10 -160z m60 0 c0 -103 -4 -165 -10 -165 -6 0 -10 62 -10
165 0 103 4 165 10 165 6 0 10 -62 10 -165z"/>
<path d="M225 1168 c-3 -7 -23 -62 -45 -122 -35 -95 -40 -120 -40 -192 l0 -84
70 0 70 0 0 40 c0 29 5 42 19 50 11 5 74 10 141 10 l121 0 -3 153 -3 152 -163
3 c-124 2 -164 0 -167 -10z m240 -103 l0 -59 -130 -33 c-71 -18 -133 -29 -137
-25 -6 6 14 137 27 170 3 9 34 12 122 10 l118 -3 0 -60z"/>
<path d="M541 863 c-227 -3 -251 -7 -251 -42 1 -14 2 -14 11 2 14 24 33 22 19
-2 -17 -33 -12 -86 11 -107 21 -19 20 -19 -97 -24 -66 -4 335 -6 891 -6 556 0
968 2 916 5 -93 6 -93 6 -72 25 30 27 29 85 -2 114 -75 70 -180 -31 -116 -112
l20 -26 -76 0 -76 0 20 26 c28 36 27 79 -4 109 -43 44 -114 30 -134 -25 -12
-35 -7 -56 22 -87 l20 -23 -278 0 -278 0 21 23 c50 53 13 137 -59 137 -70 0
-103 -77 -58 -134 l20 -26 -77 0 c-75 0 -77 1 -60 19 9 10 19 34 23 54 14 90
-121 124 -156 39 -14 -33 -2 -77 27 -98 14 -11 -13 -13 -161 -14 l-178 0 20
26 c25 32 27 71 5 102 -12 18 -13 22 -1 22 7 0 20 -11 27 -25 7 -14 17 -25 22
-25 4 0 8 11 8 25 0 23 3 25 50 25 28 0 50 -4 50 -10 0 -5 24 -10 54 -10 52 0
53 0 50 -27 -3 -25 -3 -24 6 4 6 17 22 41 36 52 15 12 23 20 18 19 -5 -2 -110
-4 -233 -5z m-119 -60 c24 -21 23 -45 -2 -68 -29 -27 -74 -10 -78 28 -6 52 41
76 80 40z m434 -8 c15 -23 15 -27 0 -50 -27 -42 -86 -26 -86 23 0 55 56 72 86
27z m228 9 c9 -8 16 -23 16 -31 0 -21 -29 -53 -48 -53 -22 0 -52 30 -52 51 0
23 26 49 50 49 10 0 26 -7 34 -16z m632 -9 c15 -23 15 -27 0 -50 -27 -42 -86
-26 -86 23 0 55 56 72 86 27z m225 15 c36 -20 14 -90 -28 -90 -21 0 -53 29
-53 48 0 20 29 52 47 52 8 0 23 -5 34 -10z"/>
<path d="M867 859 c12 -6 29 -26 37 -43 10 -19 16 -24 16 -13 0 18 26 24 32 7
2 -5 11 4 20 20 l17 30 -54 0 c-29 0 -62 2 -72 5 -12 4 -10 2 4 -6z"/>
<path d="M1557 863 c-57 -3 -68 -7 -63 -19 3 -9 6 -18 6 -20 0 -2 17 -4 39 -4
36 0 38 -2 35 -27 -3 -25 -3 -24 6 4 6 17 22 41 36 52 15 12 23 20 18 19 -5
-1 -40 -4 -77 -5z"/>
<path d="M1732 854 c11 -6 27 -22 34 -35 7 -13 13 -18 14 -11 0 6 7 12 15 12
8 0 15 -6 15 -12 0 -7 6 -4 12 7 6 11 19 27 29 35 17 14 12 15 -60 15 -64 0
-76 -2 -59 -11z"/>
<path d="M1127 837 c20 -27 53 -25 71 4 11 18 9 19 -38 19 l-51 0 18 -23z"/>
<path d="M1986 838 c15 -20 24 -23 80 -20 55 3 64 6 64 23 0 17 -8 19 -80 19
l-81 0 17 -22z"/>
<path d="M1220 831 c-5 -11 -10 -24 -10 -30 0 -16 30 -41 51 -41 16 0 19 7 19
45 0 41 -2 45 -25 45 -14 0 -29 -8 -35 -19z"/>
<path d="M1310 805 l0 -45 40 0 40 0 0 45 0 45 -40 0 -40 0 0 -45z"/>
<path d="M1420 806 c0 -39 3 -46 20 -46 27 0 48 45 33 68 -5 9 -20 18 -32 20
-19 3 -21 -1 -21 -42z"/>
<path d="M1151 784 c0 -11 3 -14 6 -6 3 7 2 16 -1 19 -3 4 -6 -2 -5 -13z"/>
<path d="M2011 784 c0 -11 3 -14 6 -6 3 7 2 16 -1 19 -3 4 -6 -2 -5 -13z"/>
<path d="M120 748 c0 -16 11 -18 85 -18 67 0 85 3 85 14 0 11 -20 15 -85 18
-76 3 -85 1 -85 -14z"/>
<path d="M1852 468 c-31 -31 3 -39 39 -8 l24 19 -25 1 c-15 0 -31 -5 -38 -12z"/>
<path d="M354 416 c-60 -27 -80 -86 -49 -146 19 -37 43 -50 95 -50 78 0 123
78 89 153 -20 45 -84 65 -135 43z m92 -51 c23 -35 11 -92 -22 -107 -52 -24
-105 32 -83 89 13 34 26 43 61 43 18 0 33 -8 44 -25z"/>
<path d="M1663 423 c-12 -2 -34 -18 -49 -36 -22 -26 -25 -38 -21 -76 6 -58 42
-91 96 -91 47 0 82 23 64 41 -10 10 -16 10 -25 1 -17 -17 -53 -15 -70 6 -24
27 -28 49 -17 82 12 32 34 42 83 38 40 -4 44 17 5 31 -18 6 -35 10 -38 10 -3
-1 -16 -4 -28 -6z"/>
<path d="M120 405 c0 -9 9 -15 25 -15 25 0 25 -1 25 -85 0 -84 0 -85 25 -85
25 0 25 1 25 85 l0 85 30 0 c20 0 30 5 30 15 0 12 -16 15 -80 15 -64 0 -80 -3
-80 -15z"/>
<path d="M540 320 c0 -93 1 -100 20 -100 16 0 20 7 20 35 0 33 2 35 35 35 43
0 75 29 75 68 0 44 -27 62 -93 62 l-57 0 0 -100z m105 50 c9 -27 -11 -50 -41
-50 -21 0 -24 5 -24 35 0 32 2 35 29 35 21 0 32 -6 36 -20z"/>
<path d="M790 333 c-18 -49 -35 -94 -37 -100 -3 -8 3 -13 16 -13 14 0 25 9 31
25 8 21 16 25 48 25 32 0 41 -5 50 -25 7 -15 20 -25 33 -25 11 0 19 4 17 8 -1
4 -19 49 -38 100 -31 84 -37 92 -61 92 -23 0 -29 -8 -59 -87z m75 11 c21 -50
19 -54 -15 -54 -16 0 -30 3 -30 6 0 11 23 84 26 84 2 0 11 -16 19 -36z"/>
<path d="M970 320 l0 -100 65 0 c51 0 65 3 65 15 0 11 -11 15 -40 15 l-40 0 0
85 c0 84 0 85 -25 85 l-25 0 0 -100z"/>
<path d="M1130 320 c0 -82 3 -100 15 -100 12 0 15 14 15 65 0 36 4 65 8 65 4
0 20 -25 35 -55 15 -30 33 -55 40 -55 7 0 26 26 42 58 l30 57 3 -67 c3 -60 5
-68 22 -68 19 0 20 7 20 100 0 100 0 100 -25 100 -21 0 -30 -11 -59 -67 l-34
-68 -33 68 c-27 53 -38 67 -56 67 -22 0 -23 -3 -23 -100z"/>
<path d="M1455 411 c-3 -6 -12 -27 -19 -48 -8 -21 -23 -62 -35 -90 l-21 -53
24 0 c17 0 26 7 30 25 5 21 12 25 46 25 33 0 42 -4 52 -25 10 -22 48 -36 48
-18 0 4 -16 49 -36 100 -31 81 -39 93 -59 93 -13 0 -26 -4 -30 -9z m55 -104
c0 -14 -6 -18 -27 -15 -30 3 -32 15 -11 67 l10 26 14 -30 c7 -16 13 -38 14
-48z"/>
<path d="M1790 320 l0 -100 65 0 c50 0 65 3 65 14 0 10 -14 16 -42 18 -38 3
-43 6 -43 28 0 21 5 26 33 28 46 5 43 32 -3 32 -31 0 -35 3 -35 25 0 23 4 25
45 25 33 0 45 4 45 15 0 12 -14 15 -65 15 l-65 0 0 -100z"/>
<path d="M1960 320 c0 -81 3 -100 15 -100 11 0 15 16 17 67 l3 67 53 -67 c74
-93 82 -90 82 33 0 82 -3 100 -15 100 -12 0 -15 -13 -15 -60 0 -33 -3 -60 -7
-60 -5 1 -28 27 -53 60 -25 33 -53 59 -62 60 -16 0 -18 -11 -18 -100z"/>
</g>
</svg>
